<?xml version="1.0" encoding="UTF-8" standalone="no"?>
<!-- Created with Inkscape (http://www.inkscape.org/) -->

<svg
   xmlns:dc="http://purl.org/dc/elements/1.1/"
   xmlns:cc="http://creativecommons.org/ns#"
   xmlns:rdf="http://www.w3.org/1999/02/22-rdf-syntax-ns#"
   xmlns:svg="http://www.w3.org/2000/svg"
   xmlns="http://www.w3.org/2000/svg"
   xmlns:sodipodi="http://sodipodi.sourceforge.net/DTD/sodipodi-0.dtd"
   xmlns:inkscape="http://www.inkscape.org/namespaces/inkscape"
   width="336.62823"
   height="202.64931"
   id="svg2"
   version="1.1"
   inkscape:version="0.48.4 r9939"
   sodipodi:docname="Logo2.svg"
   inkscape:export-filename="C:\Users\E\Google Drive\אורן\בקרה\IOSight\Web\Web\Logo.png"
   inkscape:export-xdpi="90"
   inkscape:export-ydpi="90">
  <defs
     id="defs4">
    <inkscape:perspective
       sodipodi:type="inkscape:persp3d"
       inkscape:vp_x="0 : 526.18109 : 1"
       inkscape:vp_y="0 : 1000 : 0"
       inkscape:vp_z="744.09448 : 526.18109 : 1"
       inkscape:persp3d-origin="372.04724 : 350.78739 : 1"
       id="perspective2997" />
  </defs>
  <sodipodi:namedview
     id="base"
     pagecolor="#ffffff"
     bordercolor="#666666"
     borderopacity="1.0"
     inkscape:pageopacity="0.0"
     inkscape:pageshadow="2"
     inkscape:zoom="2.8"
     inkscape:cx="177.0632"
     inkscape:cy="74.098374"
     inkscape:document-units="px"
     inkscape:current-layer="layer1"
     showgrid="false"
     fit-margin-top="0"
     fit-margin-left="0"
     fit-margin-right="0"
     fit-margin-bottom="0"
     inkscape:window-width="1920"
     inkscape:window-height="1018"
     inkscape:window-x="-8"
     inkscape:window-y="-8"
     inkscape:window-maximized="1" />
  <metadata
     id="metadata7">
    <rdf:RDF>
      <cc:Work
         rdf:about="">
        <dc:format>image/svg+xml</dc:format>
        <dc:type
           rdf:resource="http://purl.org/dc/dcmitype/StillImage" />
        <dc:title></dc:title>
      </cc:Work>
    </rdf:RDF>
  </metadata>
  <g
     inkscape:label="Layer 1"
     inkscape:groupmode="layer"
     id="layer1"
     transform="translate(-237.41301,-483.75694)">
    <g
       id="g3806">
      <path
         sodipodi:nodetypes="cscccsccccccc"
         inkscape:connector-curvature="0"
         id="path2991"
         d="m 574.04126,489.74873 c -39.5631,5.43518 -83.62448,9.12673 -82.64188,30.14275 2.64551,56.58305 69.90179,129.84451 36.45412,135.90643 -107.43504,9.95412 -54.22277,-72.39737 -32.98439,-62.36089 -43.10444,-7.30659 -93.34696,-26.15059 -93.89347,-0.90742 0.5214,36.86963 1.18694,52.72242 -1.79397,57.405 -5.16443,8.11259 -18.05794,-26.41485 -47.24905,-83.95034 -11.99423,-18.14338 3.82996,49.074 -9.30173,49.15839 -72.09683,-5.30372 -51.23775,62.69696 3.12718,62.69696 5.14627,0.17038 18.10506,-5.02964 15.63583,-8.54959 -27.91731,-19.18409 -119.38965,-41.2509 -118.08294,-70.12995 12.22543,-8.81651 11.75925,-13.9145 11.75925,-6.81632 -0.2433,26.3425 -0.0888,61.79736 0,79.79613"
         style="fill:none;stroke:#000000;stroke-width:11.38890457;stroke-linecap:butt;stroke-linejoin:miter;stroke-miterlimit:4;stroke-opacity:1;stroke-dasharray:none" />
      <a
         id="a3803">
        <path
           sodipodi:type="arc"
           style="fill:#feba5e;fill-opacity:1;stroke:#040404;stroke-width:0;stroke-linecap:butt;stroke-linejoin:round;stroke-miterlimit:4;stroke-opacity:1;stroke-dasharray:none"
           id="path3783"
           sodipodi:cx="233.6609"
           sodipodi:cy="572.66602"
           sodipodi:rx="4.6088209"
           sodipodi:ry="3.661803"
           d="m 238.26972,572.66602 c 0,2.02235 -2.06343,3.6618 -4.60882,3.6618 -2.54538,0 -4.60882,-1.63945 -4.60882,-3.6618 0,-2.02236 2.06344,-3.66181 4.60882,-3.66181 2.54539,0 4.60882,1.63945 4.60882,3.66181 z"
           transform="matrix(0.86790094,0,0,1.0923581,50.839423,-34.414397)" />
      </a>
      <path
         transform="matrix(0.86790094,0,0,1.0923581,199.75127,-39.884655)"
         d="m 238.26972,572.66602 c 0,2.02235 -2.06343,3.6618 -4.60882,3.6618 -2.54538,0 -4.60882,-1.63945 -4.60882,-3.6618 0,-2.02236 2.06344,-3.66181 4.60882,-3.66181 2.54539,0 4.60882,1.63945 4.60882,3.66181 z"
         sodipodi:ry="3.661803"
         sodipodi:rx="4.6088209"
         sodipodi:cy="572.66602"
         sodipodi:cx="233.6609"
         id="path3783-1"
         style="fill:#feba5e;fill-opacity:1;stroke:#040404;stroke-width:0;stroke-linecap:butt;stroke-linejoin:round;stroke-miterlimit:4;stroke-opacity:1;stroke-dasharray:none"
         sodipodi:type="arc" />
    </g>
  </g>
</svg>
