<?xml version="1.0" encoding="UTF-8" standalone="no"?>
<!-- Created with Inkscape (http://www.inkscape.org/) -->

<svg
   xmlns:dc="http://purl.org/dc/elements/1.1/"
   xmlns:cc="http://creativecommons.org/ns#"
   xmlns:rdf="http://www.w3.org/1999/02/22-rdf-syntax-ns#"
   xmlns:svg="http://www.w3.org/2000/svg"
   xmlns="http://www.w3.org/2000/svg"
   xmlns:sodipodi="http://sodipodi.sourceforge.net/DTD/sodipodi-0.dtd"
   xmlns:inkscape="http://www.inkscape.org/namespaces/inkscape"
   width="336.62823"
   height="202.64931"
   id="svg2"
   version="1.1"
   inkscape:version="0.48.4 r9939"
   sodipodi:docname="New document 1">
  <defs
     id="defs4">
    <inkscape:perspective
       sodipodi:type="inkscape:persp3d"
       inkscape:vp_x="0 : 526.18109 : 1"
       inkscape:vp_y="0 : 1000 : 0"
       inkscape:vp_z="744.09448 : 526.18109 : 1"
       inkscape:persp3d-origin="372.04724 : 350.78739 : 1"
       id="perspective2997" />
  </defs>
  <sodipodi:namedview
     id="base"
     pagecolor="#ffffff"
     bordercolor="#666666"
     borderopacity="1.0"
     inkscape:pageopacity="0.0"
     inkscape:pageshadow="2"
     inkscape:zoom="1.4"
     inkscape:cx="-31.030299"
     inkscape:cy="0.16481181"
     inkscape:document-units="px"
     inkscape:current-layer="layer1"
     showgrid="false"
     fit-margin-top="0"
     fit-margin-left="0"
     fit-margin-right="0"
     fit-margin-bottom="0"
     inkscape:window-width="1920"
     inkscape:window-height="1018"
     inkscape:window-x="-8"
     inkscape:window-y="-8"
     inkscape:window-maximized="1" />
  <metadata
     id="metadata7">
    <rdf:RDF>
      <cc:Work
         rdf:about="">
        <dc:format>image/svg+xml</dc:format>
        <dc:type
           rdf:resource="http://purl.org/dc/dcmitype/StillImage" />
        <dc:title></dc:title>
      </cc:Work>
    </rdf:RDF>
  </metadata>
  <g
     inkscape:label="Layer 1"
     inkscape:groupmode="layer"
     id="layer1"
     transform="translate(-237.41301,-483.75694)">
    <g
       id="g3806">
      <path
         sodipodi:nodetypes="cccsssssscscssssssssssssscssssssscsssccsscssccssscsssscsssssssscsscsssssscscsssccsccscssscssssssscscscssssccssssssccsccssssssssssssssssscssssssssssssc"
         inkscape:connector-curvature="0"
         id="path2991"
         d="m 395.79273,660.74043 c 3.18525,-2.14286 1.243,0.65435 1.243,-0.29561 M 574.04126,489.74873 c -9.38149,0 -18.763,0 -28.1445,0 -1.04239,0 -2.08478,0 -3.12716,0 -1.0424,0 -2.39009,-0.67172 -3.12718,0 -0.73707,0.67171 0.73709,2.17814 0,2.84986 -1.47416,1.34344 -4.38965,-0.84966 -6.25433,0 -13.01452,5.93022 3.34305,-0.19674 -3.12717,5.69973 -1.47416,1.34343 -4.78017,-1.34344 -6.25433,0 -0.73709,0.67171 0.46617,2.0002 0,2.84986 -0.65927,1.20161 -2.46791,1.64825 -3.12716,2.84985 -0.46618,0.84967 0.73707,2.17815 0,2.84987 -0.73709,0.67172 -2.39009,-0.67172 -3.12718,0 -0.73707,0.67172 0.73709,2.17814 0,2.84986 -0.73707,0.67172 -2.39008,-0.67172 -3.12716,0 -0.73709,0.67172 0.46617,2.0002 0,2.84986 -0.65927,1.20161 -2.4679,1.64826 -3.12717,2.84987 -0.93234,1.69933 1.47416,4.35628 0,5.69972 -0.73708,0.67172 -2.39009,-0.67172 -3.12717,0 -0.73708,0.67172 0,1.8999 0,2.84986 0,0.94995 0,1.89991 0,2.84987 0,9.49954 0,18.99907 0,28.49861 0,4.74977 0,9.49953 0,14.24931 0,0.94995 0,1.8999 0,2.84986 0,0.94995 -0.46616,2.0002 0,2.84987 0.65926,1.2016 2.46791,1.64825 3.12717,2.84986 0.61994,1.12994 -0.63931,7.96696 0,8.54958 0.73708,0.67172 2.39008,-0.67172 3.12717,0 1.47416,1.34344 -0.93235,4.00039 0,5.69972 0.65926,1.20161 2.46789,1.64826 3.12716,2.84987 0.93235,1.69933 -1.47416,4.35628 0,5.69972 0.73709,0.67172 2.39009,-0.67172 3.12718,0 0.73707,0.67172 -0.46618,2.0002 0,2.84986 0.65925,1.20161 2.46789,1.64825 3.12716,2.84986 1.25087,2.27989 -1.25087,6.2697 0,8.54959 0.65927,1.2016 2.4679,1.64825 3.12716,2.84986 0.84823,1.54601 -0.85566,10.61966 0,11.39945 0.73709,0.67171 2.39009,-0.67173 3.12717,0 0.10058,0.0916 0,7.85841 0,8.54958 0,0.94995 0.73708,2.17815 0,2.84986 -0.73708,0.67172 -2.39008,-0.67171 -3.12717,0 -0.6393,0.58262 0.61996,7.41964 0,8.54959 -0.65926,1.20161 -2.46789,1.64826 -3.12716,2.84986 -0.46617,0.84967 0.73707,2.17814 0,2.84987 -0.73709,0.67171 -2.39009,-0.67173 -3.12716,0 -1.05455,0.96103 1.05454,4.73868 0,5.69971 -1.47417,1.34344 -4.78018,-1.34343 -6.25434,0 -0.73709,0.67173 0.73708,2.17815 0,2.84986 -0.73709,0.67173 -2.39009,-0.67171 -3.12717,0 -0.73708,0.67173 0.73708,2.17815 0,2.84987 -0.14173,0.12916 -14.16138,0 -15.63584,0 -7.29672,0 -14.59344,0 -21.89017,0 -1.04239,0 -2.39008,0.67171 -3.12716,0 -0.73709,-0.67172 0.73708,-2.17814 0,-2.84987 -0.63931,-0.58261 -8.1416,0.56498 -9.38151,0 -1.31853,-0.60079 -1.80863,-2.24905 -3.12716,-2.84986 -1.86468,-0.84966 -4.78018,1.34344 -6.25434,0 -0.73707,-0.67171 0.73709,-2.17814 0,-2.84986 -1.47416,-1.34343 -4.78017,1.34344 -6.25433,0 -0.73708,-0.67172 0.46617,-2.0002 0,-2.84985 -6.50725,-11.86045 0.21588,3.04659 -6.25434,-2.84987 -0.73707,-0.67172 0.46618,-2.00019 0,-2.84986 -0.65926,-1.20161 -2.46789,-1.64826 -3.12716,-2.84986 -0.47585,-0.86732 0,-7.26614 0,-8.54959 0,-5.69973 0,-11.39944 0,-17.09917 0,-0.94995 -0.73709,-2.17815 0,-2.84986 6.25433,-5.69973 3.12716,18.04913 3.12716,-8.54959 0,-1.8999 0,3.79982 0,5.69973 0,0.94995 0,-1.89991 0,-2.84987 0,-6.68343 -0.73707,1.34344 3.12717,-5.69972 0.46617,-0.84966 -0.46616,-2.0002 0,-2.84986 1.28154,-2.33578 4.97281,-3.36394 6.25434,-5.69972 0.46617,-0.84967 -0.73709,-2.17815 0,-2.84986 0.73708,-0.67173 2.39009,0.67171 3.12716,0 0.73709,-0.67173 -0.46616,-2.0002 0,-2.84987 6.50726,-11.86044 -0.21588,3.04661 6.25434,-2.84986 0.73707,-0.67172 -0.73709,-2.17814 0,-2.84986 0.73707,-0.67172 2.39009,0.67172 3.12716,0 0.73709,-0.67172 -0.93233,-2.42503 0,-2.84987 1.86469,-0.84966 4.38966,0.84967 6.25434,0 0.93234,-0.42482 -0.73708,-2.17813 0,-2.84986 0.31271,-0.28498 9.06878,-0.28498 9.38151,0 0.73707,0.67173 -0.73709,2.17815 0,2.84986 0.73707,0.67173 2.08477,0 3.12716,0 7.78887,0 2.19483,-0.42482 -34.39885,10e-6 -47.94989,-1.89991 -45.51164,1.75525 -43.78033,5.69972 0.57134,1.3017 0,9.48027 0,11.39945 0,7.59963 0,15.19926 0,22.79889 0,0.69117 0.10059,8.45798 0,8.54958 -4.16956,3.79983 -3.12717,-4.74976 -3.12717,2.84987 0,1.98219 0.56544,13.2187 0,14.24931 -0.65926,1.20161 -2.4679,1.64826 -3.12717,2.84986 -0.46617,0.84967 0,1.8999 0,2.84987 0,0.94995 0,3.79981 0,2.84985 0,-1.8999 0,-7.59963 0,-5.69972 0,2.84987 -0.9889,5.84597 0,8.54958 0.32964,0.90121 -27.50699,-62.8527 -43.86011,-94.75617 -16.35312,-20.50401 -6.17455,22.55968 -6.17455,34.90908 0,0.69116 -0.10059,8.45793 0,8.54958 4.16955,3.79982 3.12716,-4.74977 3.12716,2.84986 0,0.94996 0.73708,2.17815 0,2.84987 -0.73709,0.67171 -2.08478,0 -3.12716,0 -1.0424,0 -2.08479,0 -3.12718,0 -10.42389,0 -20.84778,0 -31.27167,0 -1.04239,0 -2.08478,0 -3.12717,0 -1.04238,0 -2.39008,-0.67172 -3.12716,0 -0.73709,0.67171 0.73708,2.17814 0,2.84986 -0.73709,0.67171 -2.39009,-0.67172 -3.12716,0 -1.47416,1.34344 0.93233,4.00039 0,5.69972 -0.65927,1.20161 -2.46791,1.64826 -3.12718,2.84987 -0.46616,0.84966 0.46617,2.00019 0,2.84986 -0.65926,1.20161 -2.4679,1.64825 -3.12716,2.84985 -0.56545,1.03061 0,12.26712 0,14.24932 0,0.69116 -0.10059,8.45793 0,8.54959 0.73708,0.67171 2.39009,-0.67173 3.12716,0 1.47416,1.34343 -1.47416,4.35628 0,5.69971 0.73709,0.67173 2.39009,-0.67171 3.12718,0 0.73707,0.67173 -0.46618,2.0002 0,2.84986 0.65925,1.20161 2.46789,1.64826 3.12716,2.84987 0.46617,0.84966 -0.73709,2.17814 0,2.84986 0.73708,0.67171 2.19483,-0.42483 3.12716,0 1.31854,0.6008 1.80865,2.24905 3.12717,2.84986 1.86469,0.84967 4.78018,-1.34344 6.25434,0 0.73708,0.67172 -0.73709,2.17814 0,2.84987 1.05455,0.96103 5.19979,-0.96104 6.25434,0 0.73707,0.67171 -0.73709,2.17813 0,2.84986 0.73707,0.67171 2.08477,0 3.12716,0 6.25433,0 12.50867,0 18.76301,0 1.04238,0 2.08477,0 3.12716,0 1.04239,0 2.19483,0.42483 3.12716,0 1.31854,-0.60081 1.80865,-2.24907 3.12717,-2.84986 1.86469,-0.84967 4.78018,1.34344 6.25434,0 0.73708,-0.67173 0,-1.89992 0,-2.84987 0,-0.94995 0.73708,-2.17815 0,-2.84986 -0.73709,-0.67172 -2.39009,0.67171 -3.12717,0 -0.73708,-0.67172 -120.46069,-48.11439 -114.95577,-70.12995 12.22543,-8.81651 11.75925,-13.9145 11.75925,-6.81632 0,16.14922 0,32.29843 0,48.44765 0,7.59963 0,15.19927 0,22.79889 0,0.94995 0,1.89992 0,2.84987 0,0.94995 1.04239,2.84986 0,2.84986 -1.04239,0 0,-3.79981 0,-2.84986 0,1.89991 0,3.79981 0,5.69972 0,0.94995 1.04239,2.84987 0,2.84987 -1.04239,0 0,-3.79982 0,-2.84987 0,1.8999 0,3.79982 0,5.69973 0,0.94995 1.04239,2.84986 0,2.84986 -1.04239,0 1.04239,-2.84986 0,-2.84986 -3.86425,0 -3.12716,6.68343 -3.12716,0"
         style="fill:none;stroke:#000000;stroke-width:11.38890457;stroke-linecap:butt;stroke-linejoin:miter;stroke-miterlimit:4;stroke-opacity:1;stroke-dasharray:none" />
      <a
         id="a3803">
        <path
           sodipodi:type="arc"
           style="fill:#feba5e;fill-opacity:1;stroke:#040404;stroke-width:0;stroke-linecap:butt;stroke-linejoin:round;stroke-miterlimit:4;stroke-opacity:1;stroke-dasharray:none"
           id="path3783"
           sodipodi:cx="233.6609"
           sodipodi:cy="572.66602"
           sodipodi:rx="4.6088209"
           sodipodi:ry="3.661803"
           d="m 238.26972,572.66602 c 0,2.02235 -2.06343,3.6618 -4.60882,3.6618 -2.54538,0 -4.60882,-1.63945 -4.60882,-3.6618 0,-2.02236 2.06344,-3.66181 4.60882,-3.66181 2.54539,0 4.60882,1.63945 4.60882,3.66181 z"
           transform="matrix(0.86790094,0,0,1.0923581,50.839423,-34.414397)" />
      </a>
      <path
         transform="matrix(0.86790094,0,0,1.0923581,199.75127,-39.884655)"
         d="m 238.26972,572.66602 c 0,2.02235 -2.06343,3.6618 -4.60882,3.6618 -2.54538,0 -4.60882,-1.63945 -4.60882,-3.6618 0,-2.02236 2.06344,-3.66181 4.60882,-3.66181 2.54539,0 4.60882,1.63945 4.60882,3.66181 z"
         sodipodi:ry="3.661803"
         sodipodi:rx="4.6088209"
         sodipodi:cy="572.66602"
         sodipodi:cx="233.6609"
         id="path3783-1"
         style="fill:#feba5e;fill-opacity:1;stroke:#040404;stroke-width:0;stroke-linecap:butt;stroke-linejoin:round;stroke-miterlimit:4;stroke-opacity:1;stroke-dasharray:none"
         sodipodi:type="arc" />
    </g>
  </g>
</svg>
